<svg width="6px" height="9px" viewBox="0 0 6 9" version="1.1" xmlns="http://www.w3.org/2000/svg" xmlns:xlink="http://www.w3.org/1999/xlink">
    <g id="ipifi.org" stroke="none" stroke-width="1" fill="none" fill-rule="evenodd">
        <g id="IP-GEO-Datafeed" transform="translate(-1247.000000, -51.000000)" fill="#FFFFFF" fill-rule="nonzero">
            <g id="Down" transform="translate(1250.000000, 56.000000) scale(-1, 1) rotate(90.000000) translate(-1250.000000, -56.000000) translate(1245.000000, 49.000000)">
                <path d="M8.55803571,5.38660714 C8.61160741,5.44017884 8.63839286,5.50178537 8.63839286,5.57142857 C8.63839286,5.64107178 8.61160741,5.7026783 8.55803571,5.75625 L4.81339286,9.50089286 C4.75982116,9.55446455 4.69821463,9.58125 4.62857143,9.58125 C4.55892822,9.58125 4.4973217,9.55446455 4.44375,9.50089286 L0.699107143,5.75625 C0.645535446,5.7026783 0.61875,5.64107178 0.61875,5.57142857 C0.61875,5.50178537 0.645535446,5.44017884 0.699107143,5.38660714 L1.10089286,4.98482143 C1.15446455,4.93124973 1.21607108,4.90446429 1.28571429,4.90446429 C1.35535749,4.90446429 1.41696402,4.93124973 1.47053571,4.98482143 L4.62857143,8.14285714 L7.78660714,4.98482143 C7.84017884,4.93124973 7.90178537,4.90446429 7.97142857,4.90446429 C8.04107178,4.90446429 8.1026783,4.93124973 8.15625,4.98482143 L8.55803571,5.38660714 Z" id=""></path>
            </g>
        </g>
    </g>
</svg>
